<?xml version="1.0" encoding="UTF-8"?>
<!DOCTYPE svg PUBLIC "-//W3C//DTD SVG 1.1//EN" "http://www.w3.org/Graphics/SVG/1.1/DTD/svg11.dtd">
<svg version="1.1" xmlns="http://www.w3.org/2000/svg" xmlns:xlink="http://www.w3.org/1999/xlink" x="0px" y="0px" width="128" height="128" viewBox="0, 0, 128, 128">
  <g id="Background">
    <rect x="0" y="0" width="128" height="128" fill="#000000" fill-opacity="0"/>
  </g>
  <g id="Background">
    <path d="M18.093,6 L109.907,6 C116.561,6 122,11.439 122,18.093 L122,109.905 C122,116.561 116.561,122 109.907,122 L18.093,122 C11.439,122 6,116.561 6,109.905 L6,18.093 C6,11.439 11.439,6 18.093,6" fill="#727272"/>
    <path d="M52.173,57.03 C49.729,52.555 48.496,48.445 48.061,44.736 L38.056,50.578 L70.367,69.32 L94.819,55.774 L91.937,54.103 L73.203,54.34 L72.966,32.638 L78.413,37.958 C78.413,37.958 90.831,30.739 84.748,14.937 C97.567,28.386 93.348,41.283 90.799,46.416 L103.574,53.824 L103.574,93.785 L70.459,113.062 L28.854,88.834 L28.854,71.132 L19.081,65.397 L28.826,48.833 L48.176,37.721 C49.701,27.958 56.46,22.427 56.46,22.427 L52.492,15.736 L73.979,21.202 L68.476,42.682 L64.512,35.986 C64.512,35.986 50.341,39.827 52.173,57.03" fill="#EBEDED"/>
    <path d="M18.541,63.388 L58.73,85.418 L64.983,72.462 L65.087,92.849 L16.87,66.43 z" fill="#737370"/>
    <path d="M87.169,91.136 L85.694,91.995 L85.694,99.539 L87.169,98.681 z M79.657,103.057 L79.629,95.525 L81.131,94.653 L81.131,102.198 z M92.141,88.241 L90.645,89.112 L90.645,96.657 L92.141,95.786 z M95.773,93.67 L95.773,86.13 L94.297,86.989 L94.297,94.529 L95.539,93.807 z M89.634,89.702 L88.16,90.561 L88.16,98.106 L89.634,97.247 z M83.638,93.192 L82.164,94.05 L82.164,101.594 L83.638,100.737 z" fill="#737370"/>
  </g>
  <defs/>
</svg>
