<?xml version="1.0" encoding="UTF-8"?>
<!DOCTYPE svg PUBLIC "-//W3C//DTD SVG 1.1//EN" "http://www.w3.org/Graphics/SVG/1.1/DTD/svg11.dtd">
<svg version="1.1" xmlns="http://www.w3.org/2000/svg" xmlns:xlink="http://www.w3.org/1999/xlink" x="0px" y="0px" width="128" height="128" viewBox="0, 0, 128, 128">
  <g id="Background">
    <rect x="0" y="0" width="128" height="128" fill="#000000" fill-opacity="0"/>
  </g>
  <g id="Background">
    <path d="M18.092,6 L109.904,6 C116.559,6 122,11.439 122,18.093 L122,109.907 C122,116.561 116.559,122 109.904,122 L18.092,122 C11.441,122 6,116.561 6,109.907 L6,18.093 C6,11.439 11.441,6 18.092,6" fill="#737370"/>
    <path d="M33.751,93.796 C24.464,76.785 24.405,53.209 40.403,40.12 L34.247,29.742 L67.575,38.22 L59.04,71.537 L52.89,61.153 C52.89,61.153 30.909,67.111 33.751,93.796" fill="#92DAF7"/>
    <path d="M94.249,34.204 C103.536,51.214 103.595,74.791 87.597,87.88 L93.753,98.258 L60.424,89.778 L68.96,56.46 L75.11,66.847 C75.11,66.847 97.089,60.891 94.249,34.204" fill="#92DAF7"/>
  </g>
  <defs/>
</svg>
